<?xml version="1.0" encoding="UTF-8" standalone="no"?>
<!DOCTYPE svg PUBLIC "-//W3C//DTD SVG 1.1//EN"
 "http://www.w3.org/Graphics/SVG/1.1/DTD/svg11.dtd">
<!-- Generated by graphviz version 2.40.1 (20161225.0304)
 -->
<!-- Title: snakemake_dag Pages: 1 -->
<svg width="543pt" height="620pt"
 viewBox="0.00 0.00 543.00 620.00" xmlns="http://www.w3.org/2000/svg" xmlns:xlink="http://www.w3.org/1999/xlink">
<g id="graph0" class="graph" transform="scale(1 1) rotate(0) translate(4 616)">
<title>snakemake_dag</title>
<polygon fill="#ffffff" stroke="transparent" points="-4,4 -4,-616 539,-616 539,4 -4,4"/>
<!-- 0 -->
<g id="node1" class="node">
<title>0</title>
<path fill="none" stroke="#d85656" stroke-width="2" d="M523,-36C523,-36 443,-36 443,-36 437,-36 431,-30 431,-24 431,-24 431,-12 431,-12 431,-6 437,0 443,0 443,0 523,0 523,0 529,0 535,-6 535,-12 535,-12 535,-24 535,-24 535,-30 529,-36 523,-36"/>
<text text-anchor="middle" x="483" y="-15.5" font-family="sans" font-size="10.00" fill="#000000">deseq_wald_tests</text>
</g>
<!-- 1 -->
<g id="node2" class="node">
<title>1</title>
<path fill="none" stroke="#d88d56" stroke-width="2" d="M401,-36C401,-36 363,-36 363,-36 357,-36 351,-30 351,-24 351,-24 351,-12 351,-12 351,-6 357,0 363,0 363,0 401,0 401,0 407,0 413,-6 413,-12 413,-12 413,-24 413,-24 413,-30 407,-36 401,-36"/>
<text text-anchor="middle" x="382" y="-15.5" font-family="sans" font-size="10.00" fill="#000000">deseq_qc</text>
</g>
<!-- 2 -->
<g id="node3" class="node">
<title>2</title>
<path fill="none" stroke="#d8a456" stroke-width="2" d="M350.5,-324C350.5,-324 285.5,-324 285.5,-324 279.5,-324 273.5,-318 273.5,-312 273.5,-312 273.5,-300 273.5,-300 273.5,-294 279.5,-288 285.5,-288 285.5,-288 350.5,-288 350.5,-288 356.5,-288 362.5,-294 362.5,-300 362.5,-300 362.5,-312 362.5,-312 362.5,-318 356.5,-324 350.5,-324"/>
<text text-anchor="middle" x="318" y="-303.5" font-family="sans" font-size="10.00" fill="#000000">feature_counts</text>
</g>
<!-- 3 -->
<g id="node4" class="node">
<title>3</title>
<path fill="none" stroke="#a7d856" stroke-width="2" d="M486,-108C486,-108 380,-108 380,-108 374,-108 368,-102 368,-96 368,-96 368,-84 368,-84 368,-78 374,-72 380,-72 380,-72 486,-72 486,-72 492,-72 498,-78 498,-84 498,-84 498,-96 498,-96 498,-102 492,-108 486,-108"/>
<text text-anchor="middle" x="433" y="-87.5" font-family="sans" font-size="10.00" fill="#000000">generate_deseq_object</text>
</g>
<!-- 3&#45;&gt;0 -->
<g id="edge1" class="edge">
<title>3&#45;&gt;0</title>
<path fill="none" stroke="#c0c0c0" stroke-width="2" d="M445.6171,-71.8314C451.3172,-63.6232 458.1663,-53.7606 464.4359,-44.7323"/>
<polygon fill="#c0c0c0" stroke="#c0c0c0" stroke-width="2" points="467.3838,-46.6234 470.213,-36.4133 461.6342,-42.6306 467.3838,-46.6234"/>
</g>
<!-- 3&#45;&gt;1 -->
<g id="edge2" class="edge">
<title>3&#45;&gt;1</title>
<path fill="none" stroke="#c0c0c0" stroke-width="2" d="M420.1305,-71.8314C414.3165,-63.6232 407.3304,-53.7606 400.9354,-44.7323"/>
<polygon fill="#c0c0c0" stroke="#c0c0c0" stroke-width="2" points="403.679,-42.5505 395.0427,-36.4133 397.9669,-46.5966 403.679,-42.5505"/>
</g>
<!-- 4 -->
<g id="node5" class="node">
<title>4</title>
<path fill="none" stroke="#56d8c1" stroke-width="2" d="M226,-36C226,-36 196,-36 196,-36 190,-36 184,-30 184,-24 184,-24 184,-12 184,-12 184,-6 190,0 196,0 196,0 226,0 226,0 232,0 238,-6 238,-12 238,-12 238,-24 238,-24 238,-30 232,-36 226,-36"/>
<text text-anchor="middle" x="211" y="-15.5" font-family="sans" font-size="10.00" fill="#000000">mfuzz</text>
</g>
<!-- 3&#45;&gt;4 -->
<g id="edge6" class="edge">
<title>3&#45;&gt;4</title>
<path fill="none" stroke="#c0c0c0" stroke-width="2" d="M377.2666,-71.9243C336.8194,-58.8063 283.2278,-41.4252 247.9627,-29.9879"/>
<polygon fill="#c0c0c0" stroke="#c0c0c0" stroke-width="2" points="248.6774,-26.5403 238.0854,-26.7844 246.5178,-33.1988 248.6774,-26.5403"/>
</g>
<!-- 5 -->
<g id="node6" class="node">
<title>5</title>
<path fill="none" stroke="#56d8d8" stroke-width="2" d="M224,-108C224,-108 162,-108 162,-108 156,-108 150,-102 150,-96 150,-96 150,-84 150,-84 150,-78 156,-72 162,-72 162,-72 224,-72 224,-72 230,-72 236,-78 236,-84 236,-84 236,-96 236,-96 236,-102 230,-108 224,-108"/>
<text text-anchor="middle" x="193" y="-87.5" font-family="sans" font-size="10.00" fill="#000000">venn_diagram</text>
</g>
<!-- 6 -->
<g id="node7" class="node">
<title>6</title>
<path fill="none" stroke="#56c1d8" stroke-width="2" d="M338,-108C338,-108 266,-108 266,-108 260,-108 254,-102 254,-96 254,-96 254,-84 254,-84 254,-78 260,-72 266,-72 266,-72 338,-72 338,-72 344,-72 350,-78 350,-84 350,-84 350,-96 350,-96 350,-102 344,-108 338,-108"/>
<text text-anchor="middle" x="302" y="-87.5" font-family="sans" font-size="10.00" fill="#000000">summarise_tpm</text>
</g>
<!-- 7 -->
<g id="node8" class="node">
<title>7</title>
<path fill="none" stroke="#5673d8" stroke-width="2" d="M386.5,-396C386.5,-396 307.5,-396 307.5,-396 301.5,-396 295.5,-390 295.5,-384 295.5,-384 295.5,-372 295.5,-372 295.5,-366 301.5,-360 307.5,-360 307.5,-360 386.5,-360 386.5,-360 392.5,-360 398.5,-366 398.5,-372 398.5,-372 398.5,-384 398.5,-384 398.5,-390 392.5,-396 386.5,-396"/>
<text text-anchor="middle" x="347" y="-375.5" font-family="sans" font-size="10.00" fill="#000000">star_second_pass</text>
</g>
<!-- 7&#45;&gt;2 -->
<g id="edge3" class="edge">
<title>7&#45;&gt;2</title>
<path fill="none" stroke="#c0c0c0" stroke-width="2" d="M339.6821,-359.8314C336.5124,-351.9617 332.73,-342.5712 329.2187,-333.8533"/>
<polygon fill="#c0c0c0" stroke="#c0c0c0" stroke-width="2" points="332.3992,-332.3815 325.4165,-324.4133 325.9061,-334.9968 332.3992,-332.3815"/>
</g>
<!-- 12 -->
<g id="node13" class="node">
<title>12</title>
<path fill="none" stroke="#88d856" stroke-width="2" d="M428.5,-252C428.5,-252 353.5,-252 353.5,-252 347.5,-252 341.5,-246 341.5,-240 341.5,-240 341.5,-228 341.5,-228 341.5,-222 347.5,-216 353.5,-216 353.5,-216 428.5,-216 428.5,-216 434.5,-216 440.5,-222 440.5,-228 440.5,-228 440.5,-240 440.5,-240 440.5,-246 434.5,-252 428.5,-252"/>
<text text-anchor="middle" x="391" y="-231.5" font-family="sans" font-size="10.00" fill="#000000">calculate_cutoffs</text>
</g>
<!-- 7&#45;&gt;12 -->
<g id="edge16" class="edge">
<title>7&#45;&gt;12</title>
<path fill="none" stroke="#c0c0c0" stroke-width="2" d="M356.1502,-359.8648C361.0756,-349.55 366.9528,-336.2767 371,-324 377.7027,-303.6681 382.8609,-280.0146 386.2589,-262.0601"/>
<polygon fill="#c0c0c0" stroke="#c0c0c0" stroke-width="2" points="389.7033,-262.6814 388.0546,-252.2156 382.8169,-261.4252 389.7033,-262.6814"/>
</g>
<!-- 13 -->
<g id="node14" class="node">
<title>13</title>
<path fill="none" stroke="#d6d856" stroke-width="2" d="M243,-324C243,-324 181,-324 181,-324 175,-324 169,-318 169,-312 169,-312 169,-300 169,-300 169,-294 175,-288 181,-288 181,-288 243,-288 243,-288 249,-288 255,-294 255,-300 255,-300 255,-312 255,-312 255,-318 249,-324 243,-324"/>
<text text-anchor="middle" x="212" y="-303.5" font-family="sans" font-size="10.00" fill="#000000">calculate_tpm</text>
</g>
<!-- 7&#45;&gt;13 -->
<g id="edge18" class="edge">
<title>7&#45;&gt;13</title>
<path fill="none" stroke="#c0c0c0" stroke-width="2" d="M312.9338,-359.8314C295.3467,-350.4516 273.7084,-338.9112 254.9832,-328.9244"/>
<polygon fill="#c0c0c0" stroke="#c0c0c0" stroke-width="2" points="256.5259,-325.7805 246.0553,-324.1628 253.2318,-331.957 256.5259,-325.7805"/>
</g>
<!-- 15 -->
<g id="node16" class="node">
<title>15</title>
<path fill="none" stroke="#568ad8" stroke-width="2" d="M505,-324C505,-324 431,-324 431,-324 425,-324 419,-318 419,-312 419,-312 419,-300 419,-300 419,-294 425,-288 431,-288 431,-288 505,-288 505,-288 511,-288 517,-294 517,-300 517,-300 517,-312 517,-312 517,-318 511,-324 505,-324"/>
<text text-anchor="middle" x="468" y="-303.5" font-family="sans" font-size="10.00" fill="#000000">intergenic_reads</text>
</g>
<!-- 7&#45;&gt;15 -->
<g id="edge20" class="edge">
<title>7&#45;&gt;15</title>
<path fill="none" stroke="#c0c0c0" stroke-width="2" d="M377.5334,-359.8314C393.0101,-350.6221 411.9869,-339.3301 428.5563,-329.4706"/>
<polygon fill="#c0c0c0" stroke="#c0c0c0" stroke-width="2" points="430.6724,-332.2843 437.4764,-324.1628 427.0929,-326.2687 430.6724,-332.2843"/>
</g>
<!-- 8 -->
<g id="node9" class="node">
<title>8</title>
<path fill="none" stroke="#56d88a" stroke-width="2" d="M337.5,-180C337.5,-180 266.5,-180 266.5,-180 260.5,-180 254.5,-174 254.5,-168 254.5,-168 254.5,-156 254.5,-156 254.5,-150 260.5,-144 266.5,-144 266.5,-144 337.5,-144 337.5,-144 343.5,-144 349.5,-150 349.5,-156 349.5,-156 349.5,-168 349.5,-168 349.5,-174 343.5,-180 337.5,-180"/>
<text text-anchor="middle" x="302" y="-159.5" font-family="sans" font-size="10.00" fill="#000000">filter_backgroud</text>
</g>
<!-- 8&#45;&gt;3 -->
<g id="edge4" class="edge">
<title>8&#45;&gt;3</title>
<path fill="none" stroke="#c0c0c0" stroke-width="2" d="M335.0568,-143.8314C351.9677,-134.5368 372.7385,-123.1208 390.7941,-113.1971"/>
<polygon fill="#c0c0c0" stroke="#c0c0c0" stroke-width="2" points="392.876,-116.0468 399.9537,-108.1628 389.5043,-109.9122 392.876,-116.0468"/>
</g>
<!-- 8&#45;&gt;5 -->
<g id="edge7" class="edge">
<title>8&#45;&gt;5</title>
<path fill="none" stroke="#c0c0c0" stroke-width="2" d="M274.4947,-143.8314C260.682,-134.7074 243.7744,-123.539 228.9471,-113.7449"/>
<polygon fill="#c0c0c0" stroke="#c0c0c0" stroke-width="2" points="230.7696,-110.7541 220.4965,-108.1628 226.9114,-116.5949 230.7696,-110.7541"/>
</g>
<!-- 8&#45;&gt;6 -->
<g id="edge8" class="edge">
<title>8&#45;&gt;6</title>
<path fill="none" stroke="#c0c0c0" stroke-width="2" d="M302,-143.8314C302,-136.131 302,-126.9743 302,-118.4166"/>
<polygon fill="#c0c0c0" stroke="#c0c0c0" stroke-width="2" points="305.5001,-118.4132 302,-108.4133 298.5001,-118.4133 305.5001,-118.4132"/>
</g>
<!-- 9 -->
<g id="node10" class="node">
<title>9</title>
<path fill="none" stroke="#59d856" stroke-width="2" d="M120,-108C120,-108 12,-108 12,-108 6,-108 0,-102 0,-96 0,-96 0,-84 0,-84 0,-78 6,-72 12,-72 12,-72 120,-72 120,-72 126,-72 132,-78 132,-84 132,-84 132,-96 132,-96 132,-102 126,-108 120,-108"/>
<text text-anchor="middle" x="66" y="-87.5" font-family="sans" font-size="10.00" fill="#000000">make_annotation_table</text>
</g>
<!-- 9&#45;&gt;4 -->
<g id="edge5" class="edge">
<title>9&#45;&gt;4</title>
<path fill="none" stroke="#c0c0c0" stroke-width="2" d="M102.5896,-71.8314C124.6125,-60.8959 152.5497,-47.0236 174.5479,-36.1004"/>
<polygon fill="#c0c0c0" stroke="#c0c0c0" stroke-width="2" points="176.1775,-39.199 183.5775,-31.6167 173.0643,-32.9294 176.1775,-39.199"/>
</g>
<!-- 10 -->
<g id="node11" class="node">
<title>10</title>
<path fill="none" stroke="#d8bc56" stroke-width="2" d="M414.5,-468C414.5,-468 351.5,-468 351.5,-468 345.5,-468 339.5,-462 339.5,-456 339.5,-456 339.5,-444 339.5,-444 339.5,-438 345.5,-432 351.5,-432 351.5,-432 414.5,-432 414.5,-432 420.5,-432 426.5,-438 426.5,-444 426.5,-444 426.5,-456 426.5,-456 426.5,-462 420.5,-468 414.5,-468"/>
<text text-anchor="middle" x="383" y="-447.5" font-family="sans" font-size="10.00" fill="#000000">star_first_pass</text>
</g>
<!-- 10&#45;&gt;7 -->
<g id="edge10" class="edge">
<title>10&#45;&gt;7</title>
<path fill="none" stroke="#c0c0c0" stroke-width="2" d="M373.9157,-431.8314C369.9385,-423.8771 365.1845,-414.369 360.7861,-405.5723"/>
<polygon fill="#c0c0c0" stroke="#c0c0c0" stroke-width="2" points="363.8093,-403.7923 356.2066,-396.4133 357.5483,-406.9228 363.8093,-403.7923"/>
</g>
<!-- 11 -->
<g id="node12" class="node">
<title>11</title>
<path fill="none" stroke="#56d8a2" stroke-width="2" d="M354.5,-540C354.5,-540 291.5,-540 291.5,-540 285.5,-540 279.5,-534 279.5,-528 279.5,-528 279.5,-516 279.5,-516 279.5,-510 285.5,-504 291.5,-504 291.5,-504 354.5,-504 354.5,-504 360.5,-504 366.5,-510 366.5,-516 366.5,-516 366.5,-528 366.5,-528 366.5,-534 360.5,-540 354.5,-540"/>
<text text-anchor="middle" x="323" y="-519.5" font-family="sans" font-size="10.00" fill="#000000">star_reference</text>
</g>
<!-- 11&#45;&gt;7 -->
<g id="edge9" class="edge">
<title>11&#45;&gt;7</title>
<path fill="none" stroke="#c0c0c0" stroke-width="2" d="M323.2034,-503.9092C323.6897,-485.6198 325.2321,-456.618 330,-432 331.6741,-423.3563 334.2581,-414.15 336.9102,-405.8331"/>
<polygon fill="#c0c0c0" stroke="#c0c0c0" stroke-width="2" points="340.2704,-406.8208 340.1225,-396.227 333.6317,-404.6008 340.2704,-406.8208"/>
</g>
<!-- 11&#45;&gt;10 -->
<g id="edge13" class="edge">
<title>11&#45;&gt;10</title>
<path fill="none" stroke="#c0c0c0" stroke-width="2" d="M338.1405,-503.8314C345.1217,-495.454 353.5391,-485.3531 361.1876,-476.1749"/>
<polygon fill="#c0c0c0" stroke="#c0c0c0" stroke-width="2" points="363.9425,-478.3362 367.6556,-468.4133 358.5649,-473.8548 363.9425,-478.3362"/>
</g>
<!-- 12&#45;&gt;8 -->
<g id="edge12" class="edge">
<title>12&#45;&gt;8</title>
<path fill="none" stroke="#c0c0c0" stroke-width="2" d="M368.5415,-215.8314C357.5795,-206.9632 344.2301,-196.1637 332.3735,-186.5718"/>
<polygon fill="#c0c0c0" stroke="#c0c0c0" stroke-width="2" points="334.4271,-183.7313 324.4513,-180.1628 330.0245,-189.1734 334.4271,-183.7313"/>
</g>
<!-- 13&#45;&gt;8 -->
<g id="edge11" class="edge">
<title>13&#45;&gt;8</title>
<path fill="none" stroke="#c0c0c0" stroke-width="2" d="M223.3986,-287.7623C239.0198,-262.7682 267.1923,-217.6924 285.2245,-188.8409"/>
<polygon fill="#c0c0c0" stroke="#c0c0c0" stroke-width="2" points="288.362,-190.4246 290.694,-180.0896 282.426,-186.7146 288.362,-190.4246"/>
</g>
<!-- 14 -->
<g id="node15" class="node">
<title>14</title>
<path fill="none" stroke="#56d873" stroke-width="2" d="M355.5,-612C355.5,-612 290.5,-612 290.5,-612 284.5,-612 278.5,-606 278.5,-600 278.5,-600 278.5,-588 278.5,-588 278.5,-582 284.5,-576 290.5,-576 290.5,-576 355.5,-576 355.5,-576 361.5,-576 367.5,-582 367.5,-588 367.5,-588 367.5,-600 367.5,-600 367.5,-606 361.5,-612 355.5,-612"/>
<text text-anchor="middle" x="323" y="-591.5" font-family="sans" font-size="10.00" fill="#000000">preprocess_gtf</text>
</g>
<!-- 14&#45;&gt;11 -->
<g id="edge14" class="edge">
<title>14&#45;&gt;11</title>
<path fill="none" stroke="#c0c0c0" stroke-width="2" d="M323,-575.8314C323,-568.131 323,-558.9743 323,-550.4166"/>
<polygon fill="#c0c0c0" stroke="#c0c0c0" stroke-width="2" points="326.5001,-550.4132 323,-540.4133 319.5001,-550.4133 326.5001,-550.4132"/>
</g>
<!-- 14&#45;&gt;13 -->
<g id="edge17" class="edge">
<title>14&#45;&gt;13</title>
<path fill="none" stroke="#c0c0c0" stroke-width="2" d="M300.2604,-575.8817C289.6128,-566.2742 277.6245,-553.6464 270,-540 232.2014,-472.3473 218.7391,-380.1477 214.1828,-334.2992"/>
<polygon fill="#c0c0c0" stroke="#c0c0c0" stroke-width="2" points="217.6553,-333.8385 213.2508,-324.2025 210.6849,-334.482 217.6553,-333.8385"/>
</g>
<!-- 16 -->
<g id="node17" class="node">
<title>16</title>
<path fill="none" stroke="#56a2d8" stroke-width="2" d="M459,-540C459,-540 429,-540 429,-540 423,-540 417,-534 417,-528 417,-528 417,-516 417,-516 417,-510 423,-504 429,-504 429,-504 459,-504 459,-504 465,-504 471,-510 471,-516 471,-516 471,-528 471,-528 471,-534 465,-540 459,-540"/>
<text text-anchor="middle" x="444" y="-519.5" font-family="sans" font-size="10.00" fill="#000000">shuffle</text>
</g>
<!-- 14&#45;&gt;16 -->
<g id="edge22" class="edge">
<title>14&#45;&gt;16</title>
<path fill="none" stroke="#c0c0c0" stroke-width="2" d="M353.5334,-575.8314C370.1072,-565.9692 390.6952,-553.7186 408.0419,-543.3965"/>
<polygon fill="#c0c0c0" stroke="#c0c0c0" stroke-width="2" points="409.9754,-546.3189 416.7793,-538.1975 406.3958,-540.3033 409.9754,-546.3189"/>
</g>
<!-- 15&#45;&gt;12 -->
<g id="edge15" class="edge">
<title>15&#45;&gt;12</title>
<path fill="none" stroke="#c0c0c0" stroke-width="2" d="M448.5696,-287.8314C439.268,-279.1337 427.9796,-268.5783 417.8714,-259.1265"/>
<polygon fill="#c0c0c0" stroke="#c0c0c0" stroke-width="2" points="420.1189,-256.4363 410.4241,-252.1628 415.3379,-261.5493 420.1189,-256.4363"/>
</g>
<!-- 16&#45;&gt;15 -->
<g id="edge19" class="edge">
<title>16&#45;&gt;15</title>
<path fill="none" stroke="#c0c0c0" stroke-width="2" d="M446.0049,-503.9555C450.1873,-466.3144 459.8681,-379.1867 464.875,-334.1246"/>
<polygon fill="#c0c0c0" stroke="#c0c0c0" stroke-width="2" points="468.3581,-334.4704 465.9839,-324.1451 461.4009,-333.6974 468.3581,-334.4704"/>
</g>
<!-- 17 -->
<g id="node18" class="node">
<title>17</title>
<path fill="none" stroke="#70d856" stroke-width="2" d="M484,-612C484,-612 404,-612 404,-612 398,-612 392,-606 392,-600 392,-600 392,-588 392,-588 392,-582 398,-576 404,-576 404,-576 484,-576 484,-576 490,-576 496,-582 496,-588 496,-588 496,-600 496,-600 496,-606 490,-612 484,-612"/>
<text text-anchor="middle" x="444" y="-591.5" font-family="sans" font-size="10.00" fill="#000000">calculate_seqlens</text>
</g>
<!-- 17&#45;&gt;16 -->
<g id="edge21" class="edge">
<title>17&#45;&gt;16</title>
<path fill="none" stroke="#c0c0c0" stroke-width="2" d="M444,-575.8314C444,-568.131 444,-558.9743 444,-550.4166"/>
<polygon fill="#c0c0c0" stroke="#c0c0c0" stroke-width="2" points="447.5001,-550.4132 444,-540.4133 440.5001,-550.4133 447.5001,-550.4132"/>
</g>
</g>
</svg>
